# Blender 4.5.2 LTS
# www.blender.org
mtllib right_thumb_proximal_base.mtl
o geometry_0
v -0.003132 0.005856 -0.002278
v 0.005701 -0.000252 -0.002751
v 0.005143 0.001010 -0.002751
v 0.004376 0.002158 -0.002751
v 0.003424 0.003157 -0.002751
v 0.002313 0.003978 -0.002751
v 0.001079 0.004595 -0.002751
v 0.000366 0.004840 -0.002751
v -0.002893 0.005788 -0.002444
v -0.003132 0.005856 -0.014250
v -0.003132 -0.004383 -0.002751
v -0.001202 -0.007721 -0.002751
v 0.001677 -0.008558 -0.002751
v 0.002451 -0.008676 -0.002751
v 0.003230 -0.008590 -0.002751
v 0.003960 -0.008306 -0.002751
v 0.004591 -0.007842 -0.002751
v 0.005081 -0.007232 -0.002751
v 0.005395 -0.006515 -0.002751
v 0.005814 -0.005073 -0.002751
v 0.005990 -0.004341 -0.002751
v 0.006132 -0.002968 -0.002751
v 0.006034 -0.001591 -0.002751
v 0.005701 -0.000252 -0.014250
v 0.005143 0.001010 -0.014250
v 0.004376 0.002158 -0.014250
v 0.003424 0.003157 -0.014250
v 0.002313 0.003978 -0.014250
v 0.002215 0.004038 -0.006250
v 0.001901 0.004214 -0.006274
v 0.001730 0.004302 -0.006308
v 0.001551 0.004391 -0.006357
v 0.001210 0.004543 -0.006498
v 0.001079 0.004595 -0.014250
v 0.000942 0.004648 -0.011045
v 0.000911 0.004659 -0.006677
v 0.000630 0.004758 -0.006903
v 0.000521 0.004793 -0.007012
v 0.000366 0.004840 -0.014250
v 0.000093 0.004920 -0.007610
v -0.001625 0.005419 -0.002751
v 0.000093 0.004920 -0.010090
v -0.003132 -0.004383 -0.014250
v -0.001202 -0.007721 -0.014250
v 0.001677 -0.008558 -0.014250
v 0.002451 -0.008676 -0.014250
v 0.003230 -0.008590 -0.014250
v 0.003960 -0.008306 -0.014250
v 0.004591 -0.007842 -0.014250
v 0.005081 -0.007232 -0.014250
v 0.005395 -0.006515 -0.014250
v 0.005814 -0.005073 -0.014250
v 0.005990 -0.004341 -0.014250
v 0.006132 -0.002968 -0.014250
v 0.006034 -0.001591 -0.014250
v 0.001618 0.004358 -0.011364
v 0.001961 0.004181 -0.011434
v 0.002215 0.004038 -0.011449
v 0.001273 0.004516 -0.011233
v 0.000638 0.004755 -0.010803
v 0.000521 0.004793 -0.010689
v -0.003133 -0.004385 -0.014248
v -0.015009 -0.000583 -0.010249
v -0.014878 -0.000621 -0.011285
v -0.014494 -0.000732 -0.012249
v -0.013884 -0.000910 -0.013078
v -0.013088 -0.001141 -0.013713
v -0.012162 -0.001411 -0.014113
v -0.011167 -0.001699 -0.014248
v -0.003133 0.005857 -0.014248
v -0.003133 -0.004385 -0.002751
v -0.015009 -0.000583 -0.009249
v -0.012358 0.008539 -0.010249
v -0.012226 0.008500 -0.011285
v -0.011843 0.008388 -0.012249
v -0.011232 0.008211 -0.013078
v -0.010436 0.007980 -0.013713
v -0.009511 0.007710 -0.014113
v -0.008517 0.007422 -0.014248
v -0.009717 0.007771 -0.010749
v -0.004482 0.006249 -0.000145
v -0.003133 0.005857 -0.002278
v -0.004706 0.006314 0.000697
v -0.005143 0.006441 0.001441
v -0.005759 0.006620 0.002032
v -0.008411 -0.002501 0.002032
v -0.009158 -0.002283 0.002425
v -0.009982 -0.002044 0.002588
v -0.010816 -0.001801 0.002510
v -0.011599 -0.001575 0.002197
v -0.012268 -0.001380 0.001673
v -0.012774 -0.001233 0.000976
v -0.013076 -0.001145 0.000163
v -0.014903 -0.000614 -0.008479
v -0.012358 0.008539 -0.009249
v -0.009782 0.007790 -0.002750
v -0.009617 0.007742 0.001673
v -0.008166 0.007319 0.002510
v -0.006508 0.006837 0.002425
v -0.007331 0.007076 0.002588
v -0.008948 0.007547 0.002197
v -0.010122 0.007889 0.000976
v -0.010424 0.007976 0.000163
v -0.012251 0.008507 -0.008479
vn 0.0769 0.0340 0.9965
vn 0.0934 0.0624 0.9937
vn 0.1173 0.1118 0.9868
vn 0.1573 0.2128 0.9644
vn 0.2371 0.4736 0.8482
vn 0.3045 0.8882 0.3441
vn 0.2800 0.9600 0.0089
vn 0.2743 0.9616 -0.0000
vn -1.0000 -0.0000 -0.0000
vn -0.0796 -0.0460 0.9958
vn -0.0106 -0.0363 0.9993
vn -0.0053 -0.0346 0.9994
vn 0.0034 -0.0312 0.9995
vn 0.0109 -0.0280 0.9995
vn 0.0180 -0.0244 0.9995
vn 0.0253 -0.0203 0.9995
vn 0.0339 -0.0149 0.9993
vn 0.0390 -0.0113 0.9992
vn 0.0409 -0.0098 0.9991
vn 0.0465 -0.0048 0.9989
vn 0.0547 0.0039 0.9985
vn 0.0646 0.0161 0.9978
vn 0.9146 0.4042 -0.0000
vn 0.9705 0.2413 -0.0000
vn 0.8314 0.5556 -0.0000
vn 0.7238 0.6901 -0.0000
vn 0.5943 0.8043 -0.0000
vn 0.5209 0.8536 -0.0000
vn 0.4900 0.8717 0.0012
vn 0.4566 0.8896 0.0063
vn 0.4477 0.8942 0.0082
vn 0.4412 0.8974 0.0067
vn 0.4072 0.9133 0.0014
vn 0.3739 0.9275 -0.0000
vn 0.3588 0.9334 -0.0000
vn 0.3524 0.9359 0.0001
vn 0.3297 0.9441 0.0012
vn 0.3243 0.9459 0.0019
vn 0.3076 0.9515 0.0007
vn 0.2898 0.9571 -0.0000
vn 0.2802 0.9599 -0.0000
vn 0.2793 0.9602 0.0001
vn 0.2793 0.9602 0.0010
vn 0.2791 0.9603 -0.0000
vn 0.2789 0.9603 -0.0001
vn -0.0000 -0.0000 -1.0000
vn -0.8657 -0.5006 -0.0000
vn -0.2790 -0.9603 -0.0000
vn -0.1507 -0.9886 -0.0000
vn 0.1091 -0.9940 -0.0000
vn 0.3632 -0.9317 -0.0000
vn 0.5921 -0.8058 -0.0000
vn 0.7800 -0.6258 -0.0000
vn 0.9157 -0.4019 -0.0000
vn 0.9602 -0.2792 -0.0000
vn 0.9724 -0.2335 -0.0000
vn 0.9947 -0.1025 -0.0000
vn 0.9975 0.0709 -0.0000
vn 0.4476 0.8942 -0.0099
vn 0.4564 0.8897 -0.0073
vn 0.4924 0.8704 -0.0014
vn 0.4925 0.8703 -0.0000
vn 0.4901 0.8717 0.0002
vn 0.4577 0.8891 -0.0003
vn 0.4575 0.8892 -0.0003
vn 0.4427 0.8967 0.0001
vn 0.4165 0.9091 -0.0004
vn 0.4076 0.9132 0.0003
vn 0.3818 0.9242 -0.0002
vn 0.3243 0.9459 -0.0022
vn 0.3295 0.9442 -0.0014
vn 0.4157 0.9095 -0.0027
vn 0.3304 0.9438 -0.0001
vn 0.3307 0.9437 -0.0001
vn 0.3118 0.9501 -0.0001
vn 0.3083 0.9513 -0.0000
vn 0.3110 0.9504 -0.0010
vn 0.2792 0.9602 -0.0000
vn -0.3060 -0.9520 -0.0039
vn -0.3080 -0.9513 -0.0127
vn -0.3099 -0.9504 -0.0251
vn -0.3117 -0.9491 -0.0449
vn -0.3128 -0.9459 -0.0864
vn -0.3028 -0.9058 -0.2964
vn 1.0000 -0.0000 -0.0000
vn -0.3048 -0.9524 -0.0000
vn -0.9603 0.2791 -0.0000
vn -0.9520 0.2767 -0.1310
vn -0.8871 0.2579 -0.3827
vn -0.9519 0.2768 -0.1313
vn -0.7621 0.2216 -0.6083
vn -0.5836 0.1697 -0.7942
vn -0.3685 0.1071 -0.9234
vn -0.1243 0.0362 -0.9916
vn -0.1242 0.0361 -0.9916
vn 0.2791 0.9603 -0.0001
vn 0.8825 -0.0217 0.4699
vn 0.8585 -0.0386 0.5114
vn 0.6587 -0.1622 0.7347
vn 0.6241 -0.1814 0.7600
vn -0.1939 -0.9667 0.1668
vn -0.2624 -0.9612 0.0847
vn -0.2837 -0.9573 0.0557
vn -0.2930 -0.9552 0.0412
vn -0.2998 -0.9536 0.0286
vn -0.3037 -0.9526 0.0198
vn -0.3070 -0.9517 0.0105
vn -0.3080 -0.9514 0.0066
vn -0.3074 -0.9516 0.0052
vn -0.9504 0.2763 0.1430
vn 0.2791 0.9602 -0.0000
vn 0.2791 0.9603 -0.0002
vn 0.2790 0.9603 -0.0002
vn 0.2777 0.9607 -0.0008
vn 0.2752 0.9614 -0.0015
vn 0.2783 0.9605 -0.0032
vn 0.2794 0.9602 0.0001
vn 0.2958 0.9552 0.0097
vn 0.2792 0.9602 0.0008
vn 0.2792 0.9602 0.0009
vn 0.2803 0.9599 0.0025
vn 0.4316 -0.1254 0.8933
vn 0.4321 -0.1256 0.8930
vn 0.1796 -0.0522 0.9824
vn -0.0852 0.0248 0.9961
vn -0.3445 0.1001 0.9334
vn -0.3446 0.1001 0.9334
vn -0.5770 0.1676 0.7994
vn -0.5775 0.1679 0.7989
vn -0.7663 0.2228 0.6027
vn -0.7663 0.2228 0.6026
vn -0.8954 0.2603 0.3614
vn -0.8955 0.2603 0.3610
vn -0.9378 0.2727 0.2149
vn -0.9503 0.2763 0.1434
vn 0.2713 0.9625 0.0018
vn 0.2749 0.9615 0.0010
vn 0.2784 0.9605 0.0002
vn 0.2791 0.9603 0.0010
vn 0.2793 0.9602 0.0016
s 0
f 1//1 2//1 3//1
f 1//2 3//2 4//2
f 1//3 4//3 5//3
f 1//4 5//4 6//4
f 1//5 6//5 7//5
f 1//6 7//6 8//6
f 1//7 8//7 9//7
f 1//8 9//8 10//8
f 1//9 10//9 43//9
f 1//9 43//9 11//9
f 1//10 11//10 12//10
f 1//11 12//11 13//11
f 1//12 13//12 14//12
f 1//13 14//13 15//13
f 1//14 15//14 16//14
f 1//15 16//15 17//15
f 1//16 17//16 18//16
f 1//17 18//17 19//17
f 1//18 19//18 20//18
f 1//19 20//19 21//19
f 1//20 21//20 22//20
f 1//21 22//21 23//21
f 1//22 23//22 2//22
f 2//23 24//23 25//23
f 2//23 25//23 3//23
f 2//24 23//24 55//24
f 2//24 55//24 24//24
f 3//25 25//25 26//25
f 3//25 26//25 4//25
f 4//26 26//26 27//26
f 4//26 27//26 5//26
f 5//27 27//27 28//27
f 5//27 28//27 6//27
f 6//28 28//28 58//28
f 6//28 58//28 29//28
f 6//29 29//29 30//29
f 6//30 30//30 31//30
f 6//31 31//31 7//31
f 7//32 31//32 32//32
f 7//33 32//33 33//33
f 7//34 33//34 34//34
f 7//35 34//35 35//35
f 7//36 35//36 36//36
f 7//37 36//37 37//37
f 7//38 37//38 8//38
f 8//39 37//39 38//39
f 8//40 38//40 61//40
f 8//40 61//40 39//40
f 8//41 39//41 42//41
f 8//41 42//41 40//41
f 8//42 40//42 41//42
f 8//43 41//43 9//43
f 9//44 41//44 42//44
f 9//45 42//45 39//45
f 9//45 39//45 10//45
f 10//46 39//46 34//46
f 10//46 34//46 28//46
f 10//46 28//46 27//46
f 10//46 27//46 26//46
f 10//46 26//46 25//46
f 10//46 25//46 24//46
f 10//46 24//46 55//46
f 10//46 55//46 54//46
f 10//46 54//46 53//46
f 10//46 53//46 52//46
f 10//46 52//46 51//46
f 10//46 51//46 50//46
f 10//46 50//46 49//46
f 10//46 49//46 48//46
f 10//46 48//46 47//46
f 10//46 47//46 46//46
f 10//46 46//46 45//46
f 10//46 45//46 44//46
f 10//46 44//46 43//46
f 11//47 43//47 44//47
f 11//47 44//47 12//47
f 12//48 44//48 45//48
f 12//48 45//48 13//48
f 13//49 45//49 46//49
f 13//49 46//49 14//49
f 14//50 46//50 47//50
f 14//50 47//50 15//50
f 15//51 47//51 48//51
f 15//51 48//51 16//51
f 16//52 48//52 49//52
f 16//52 49//52 17//52
f 17//53 49//53 50//53
f 17//53 50//53 18//53
f 18//54 50//54 51//54
f 18//54 51//54 19//54
f 19//55 51//55 52//55
f 19//55 52//55 20//55
f 20//56 52//56 53//56
f 20//56 53//56 21//56
f 21//57 53//57 54//57
f 21//57 54//57 22//57
f 22//58 54//58 55//58
f 22//58 55//58 23//58
f 28//59 34//59 56//59
f 28//60 56//60 57//60
f 28//61 57//61 58//61
f 29//62 58//62 57//62
f 29//63 57//63 30//63
f 30//64 57//64 31//64
f 31//65 57//65 56//65
f 31//66 56//66 32//66
f 32//67 56//67 59//67
f 32//68 59//68 33//68
f 33//69 59//69 34//69
f 34//70 39//70 60//70
f 34//71 60//71 35//71
f 34//72 59//72 56//72
f 35//73 60//73 37//73
f 35//74 37//74 36//74
f 37//75 60//75 61//75
f 37//76 61//76 38//76
f 39//77 61//77 60//77
f 40//78 42//78 41//78
f 62//79 63//79 64//79
f 62//80 64//80 65//80
f 62//81 65//81 66//81
f 62//82 66//82 67//82
f 62//83 67//83 68//83
f 62//84 68//84 69//84
f 62//46 69//46 79//46
f 62//46 79//46 70//46
f 62//85 70//85 82//85
f 62//85 82//85 71//85
f 62//86 71//86 72//86
f 62//86 72//86 63//86
f 63//87 72//87 95//87
f 63//87 95//87 73//87
f 63//88 73//88 64//88
f 64//89 74//89 75//89
f 64//89 75//89 65//89
f 64//90 73//90 74//90
f 65//91 75//91 76//91
f 65//91 76//91 66//91
f 66//92 76//92 77//92
f 66//92 77//92 67//92
f 67//93 77//93 78//93
f 67//93 78//93 68//93
f 68//94 78//94 79//94
f 68//95 79//95 69//95
f 70//96 79//96 73//96
f 70//78 73//78 80//78
f 70//78 80//78 81//78
f 70//78 81//78 82//78
f 71//97 82//97 83//97
f 71//98 83//98 84//98
f 71//99 84//99 85//99
f 71//100 85//100 86//100
f 71//101 86//101 87//101
f 71//102 87//102 88//102
f 71//103 88//103 89//103
f 71//104 89//104 90//104
f 71//105 90//105 91//105
f 71//106 91//106 92//106
f 71//107 92//107 93//107
f 71//108 93//108 94//108
f 71//109 94//109 72//109
f 72//110 94//110 95//110
f 73//111 95//111 96//111
f 73//78 96//78 80//78
f 73//112 79//112 77//112
f 73//113 77//113 76//113
f 73//114 76//114 75//114
f 73//115 75//115 74//115
f 77//116 79//116 78//116
f 80//78 96//78 81//78
f 81//78 96//78 84//78
f 81//117 84//117 82//117
f 82//118 84//118 83//118
f 84//111 96//111 97//111
f 84//119 97//119 98//119
f 84//120 98//120 99//120
f 84//121 99//121 85//121
f 85//122 99//122 87//122
f 85//123 87//123 86//123
f 87//124 99//124 100//124
f 87//124 100//124 88//124
f 88//125 100//125 98//125
f 88//125 98//125 89//125
f 89//126 98//126 101//126
f 89//127 101//127 90//127
f 90//128 101//128 91//128
f 91//129 101//129 97//129
f 91//130 97//130 102//130
f 91//131 102//131 92//131
f 92//132 102//132 93//132
f 93//133 102//133 103//133
f 93//134 103//134 104//134
f 93//134 104//134 94//134
f 94//135 104//135 95//135
f 95//136 104//136 103//136
f 95//137 103//137 102//137
f 95//138 102//138 97//138
f 95//44 97//44 96//44
f 97//139 101//139 98//139
f 98//140 100//140 99//140
